#!OML:ASF F:\VICON\USERDATA\INSTALL\rory3\rory3.ASF
:FULLY-SPECIFIED
:DEGREES
148
root 4.70433 17.5947 1.63872 17.4082 1.8237 -2.61727
lowerback -7.24812 0.83188 14.1522
upperback -11.6065 0.909305 0.853435
thorax -8.41903 -0.698783 -6.96451
lowerneck -3.24641 15.4608 9.15707
upperneck 15.6908 19.393 5.9024
head 5.61987 10.3622 1.64051
rclavicle 1.03368e-014 -9.54166e-015
rhumerus 4.57721 -24.8546 19.4314
rradius 116.862
rwrist -66.3385
rhand -3.34432 -43.3206
rfingers 7.12502
rthumb 22.3835 -72.0438
lclavicle 1.03368e-014 -9.54166e-015
lhumerus 36.1376 33.915 -6.88849
lradius 31.2199
lwrist 31.5442
lhand -26.3151 -20.8629
lfingers 7.12502
lthumb 0.241375 9.11669
rfemur -8.64343 7.99296 -2.0535
rtibia 21.7791
rfoot 22.6233 -12.0262
rtoes -25.4266
lfemur -17.8324 1.5278 -28.0327
ltibia 15.8279
lfoot -13.8153 6.8747
ltoes 11.8776
149
root 4.70226 17.5959 1.62597 17.362 1.76094 -2.53837
lowerback -7.13402 0.794005 13.9779
upperback -11.5416 0.876755 0.880029
thorax -8.40838 -0.695022 -6.84012
lowerneck -3.47739 15.4079 9.04306
upperneck 15.9769 19.2988 5.89509
head 5.73671 10.3186 1.68154
rclavicle 2.9122e-014 -4.53229e-014
rhumerus 4.7189 -24.8534 19.1193
rradius 116.737
rwrist -66.1179
rhand -3.64539 -43.2147
rfingers 7.12502
rthumb 22.0944 -71.9724
lclavicle 2.9122e-014 -4.53229e-014
lhumerus 35.8456 33.6953 -7.21719
lradius 31.3847
lwrist 31.7902
lhand -26.7969 -20.5906
lfingers 7.12502
lthumb -0.22392 9.38906
rfemur -8.70022 7.94847 -2.14504
rtibia 21.8294
rfoot 22.1603 -13.1401
rtoes -23.6883
lfemur -17.8462 1.49337 -28.1138
ltibia 15.8472
lfoot -13.729 6.96539
ltoes 11.7661
150
root 4.70189 17.5919 1.61057 17.3239 1.80939 -2.55036
lowerback -7.09616 0.754961 14.0094
upperback -11.4919 0.827151 0.89911
thorax -8.38543 -0.717321 -6.83739
lowerneck -3.31838 15.3169 9.13463
upperneck 16.0374 19.2153 5.67711
head 5.76026 10.2696 1.59326
rclavicle -1.21259e-014 3.18055e-015
rhumerus 4.87917 -24.8026 18.776
rradius 116.666
rwrist -66.0571
rhand -3.57502 -43.1417
rfingers 7.12502
rthumb 22.162 -71.8914
lclavicle -1.21259e-014 3.18055e-015
lhumerus 35.913 33.7697 -7.11148
lradius 31.3716
lwrist 31.4553
lhand -26.8901 -20.2815
lfingers 7.12502
lthumb -0.313982 9.69798
rfemur -8.74108 7.77728 -2.10598
rtibia 21.9361
rfoot 21.1547 -14.8355
rtoes -20.7206
lfemur -17.8407 1.54387 -28.1313
ltibia 15.8489
lfoot -13.6704 7.02221
ltoes 10.8113
151
root 4.69912 17.5887 1.60251 17.3621 1.89735 -2.60762
lowerback -7.33648 0.717186 14.0684
upperback -11.3783 0.726176 0.939472
thorax -8.14084 -0.748356 -6.82585
lowerneck -3.31982 15.3086 9.05981
upperneck 16.1527 19.2143 5.63272
head 5.79395 10.2651 1.59581
rclavicle -6.55989e-015 1.90833e-014
rhumerus 5.05768 -24.9174 18.4566
rradius 116.628
rwrist -66.1173
rhand -3.33008 -43.0519
rfingers 7.12502
rthumb 22.3971 -71.7735
lclavicle -6.55989e-015 1.90833e-014
lhumerus 35.9167 33.9447 -7.08246
lradius 31.3891
lwrist 31.1829
lhand -26.6884 -20.0509
lfingers 7.12502
lthumb -0.119151 9.92884
rfemur -8.86422 7.60211 -1.99893
rtibia 22.102
rfoot 21.4034 -14.2952
rtoes -21.9216
lfemur -17.9094 1.63649 -28.0899
ltibia 15.8672
lfoot -13.7166 6.9638
ltoes 10.096
152
root 4.68766 17.5963 1.58447 17.4313 1.81169 -2.53811
lowerback -7.38861 0.770541 13.7418
upperback -11.0193 0.758815 0.849263
thorax -7.67202 -0.662023 -6.74631
lowerneck -4.68344 15.2641 9.04338
upperneck 16.6635 18.9768 5.68229
head 6.17292 10.1639 1.74364
rclavicle 2.28602e-014 -2.46493e-014
rhumerus 4.56746 -25.438 18.4409
rradius 116.576
rwrist -65.9216
rhand -3.29832 -43.023
rfingers 7.12502
rthumb 22.4276 -71.7408
lclavicle 2.28602e-014 -2.46493e-014
lhumerus 36.4085 34.7117 -6.75425
lradius 31.3939
lwrist 30.9377
lhand -26.9752 -20.0358
lfingers 7.12502
lthumb -0.396146 9.94353
rfemur -9.16265 7.7663 -2.04643
rtibia 22.2795
rfoot 22.3398 -12.4599
rtoes -25.9834
lfemur -18.1323 1.5312 -28.0929
ltibia 15.8897
lfoot -13.6826 6.95968
ltoes 11.5106
153
root 4.67562 17.6034 1.55475 17.4808 1.65125 -2.50844
lowerback -7.22312 0.776072 13.5042
upperback -11.0029 0.797454 0.857987
thorax -7.72845 -0.626667 -6.60558
lowerneck -4.77743 15.1192 9.01406
upperneck 16.9585 18.771 5.64736
head 6.28159 10.0676 1.7456
rclavicle -1.09332e-014 1.66979e-014
rhumerus 4.48337 -25.4264 18.3215
rradius 116.621
rwrist -65.7833
rhand -3.22272 -43.1091
rfingers 7.12502
rthumb 22.5002 -71.8182
lclavicle -1.09332e-014 1.66979e-014
lhumerus 36.2051 34.4867 -7.09461
lradius 31.5719
lwrist 31.0593
lhand -26.8641 -20.2427
lfingers 7.12502
lthumb -0.288822 9.73686
rfemur -9.51197 8.07222 -2.08477
rtibia 22.4287
rfoot 22.3633 -12.2665
rtoes -26.8283
lfemur -18.3685 1.37042 -28.052
ltibia 15.9287
lfoot -13.5708 7.12734
ltoes 12.6661
154
root 4.67511 17.6038 1.53179 17.4104 1.68173 -2.41766
lowerback -7.00899 0.742594 13.4348
upperback -10.948 0.782479 0.812215
thorax -7.7884 -0.632229 -6.61899
lowerneck -5.17761 14.9445 8.88589
upperneck 17.459 18.4659 5.80067
head 6.47868 9.93697 1.84302
rclavicle -5.1684e-015 3.97569e-015
rhumerus 4.33432 -25.5078 18.3064
rradius 116.667
rwrist -65.9961
rhand -2.9019 -43.2261
rfingers 7.12502
rthumb 22.8081 -71.8977
lclavicle -5.1684e-015 3.97569e-015
lhumerus 36.0171 34.2551 -7.42687
lradius 31.813
lwrist 31.6504
lhand -25.7737 -20.5441
lfingers 7.12502
lthumb 0.764334 9.4343
rfemur -9.58703 8.0343 -2.15472
rtibia 22.6288
rfoot 22.1363 -12.5209
rtoes -26.0058
lfemur -18.3599 1.29513 -28.1329
ltibia 15.9395
lfoot -13.6036 7.13986
ltoes 12.8943
155
root 4.6767 17.6032 1.5152 17.2253 1.89463 -2.36651
lowerback -6.87246 0.618064 13.552
upperback -11.1154 0.652966 0.837594
thorax -8.09481 -0.732338 -6.65617
lowerneck -4.17465 14.7806 8.73633
upperneck 17.621 18.3406 5.98353
head 6.32983 9.88756 1.82493
rclavicle -2.28602e-015 1.03368e-014
rhumerus 4.62596 -25.1169 18.1201
rradius 116.733
rwrist -66.3957
rhand -3.13479 -43.3463
rfingers 7.12502
rthumb 22.5846 -72.0452
lclavicle -2.28602e-015 1.03368e-014
lhumerus 35.5996 33.4419 -7.89259
lradius 32.1479
lwrist 32.6298
lhand -25.2182 -20.5678
lfingers 7.12502
lthumb 1.30083 9.40796
rfemur -9.4234 7.84489 -2.09328
rtibia 22.8745
rfoot 22.2405 -12.1735
rtoes -26.1857
lfemur -18.1576 1.25487 -28.1544
ltibia 15.8747
lfoot -13.6988 7.00497
ltoes 13.2024
